<?xml version="1.0" encoding="utf-8"?>
<!-- Generator: Adobe Illustrator 27.0.0, SVG Export Plug-In . SVG Version: 6.00 Build 0)  -->
<svg version="1.1" id="Layer_1" xmlns="http://www.w3.org/2000/svg" xmlns:xlink="http://www.w3.org/1999/xlink" x="0px" y="0px"
	 viewBox="0 0 754 109" style="enable-background:new 0 0 754 109;" xml:space="preserve">
<g>
	<path d="M21.27,85.65v-65.1h45.48v15.44H38.28v9.67h26.6v14.79h-26.6v9.77h28.46v15.44H21.27z"/>
	<path d="M90.09,85.65V37.19H72.88V20.55h51.62v16.65h-17.21v48.45H90.09z"/>
	<path d="M132.21,85.65v-65.1h17.02v23.53h21.58V20.55h17.2v65.1h-17.2V61.65h-21.58v23.99H132.21z"/>
	<path d="M198.52,27.61V14.59h16.37v13.02H198.52z M198.71,85.65V37.38h16v48.27H198.71z"/>
	<path d="M247.9,86.58c-4.84,0-9.18-1.1-13.02-3.3c-3.84-2.2-6.88-5.21-9.11-9.02c-2.23-3.81-3.35-8.07-3.35-12.79
		c0-4.71,1.12-8.97,3.35-12.79c2.23-3.81,5.27-6.8,9.11-8.97c3.84-2.17,8.18-3.25,13.02-3.25c4.65,0,8.73,0.95,12.23,2.84
		c3.5,1.89,6.28,4.37,8.32,7.44s3.35,6.4,3.91,10h-16.28c-0.5-1.61-1.4-2.94-2.7-4c-1.3-1.05-3.13-1.58-5.49-1.58
		c-1.67,0-3.24,0.43-4.7,1.3c-1.46,0.87-2.62,2.08-3.49,3.63c-0.87,1.55-1.3,3.35-1.3,5.39c0,2.11,0.43,3.94,1.3,5.49
		c0.87,1.55,2.03,2.74,3.49,3.58c1.46,0.84,3.02,1.26,4.7,1.26c2.29,0,4.11-0.53,5.44-1.58c1.33-1.05,2.25-2.42,2.74-4.09h16.28
		c-0.56,3.66-1.86,7.04-3.91,10.14c-2.05,3.1-4.82,5.6-8.32,7.49C256.63,85.63,252.55,86.58,247.9,86.58z"/>
	<path d="M295.33,86.58c-3.53,0-6.64-0.65-9.3-1.95c-2.67-1.3-4.7-3.07-6.09-5.3c-1.4-2.23-2.09-4.71-2.09-7.44
		c0-3.1,0.73-5.84,2.19-8.23c1.46-2.39,3.66-4.23,6.6-5.53c2.94-1.3,6.53-1.95,10.74-1.95h10.04v-0.93c0-1.8-0.57-3.27-1.72-4.42
		c-1.15-1.15-2.59-1.72-4.32-1.72c-1.12,0-2.09,0.17-2.93,0.51c-0.84,0.34-1.5,0.76-2,1.26c-0.5,0.5-0.9,1.09-1.21,1.77H279.8
		c0.31-2.91,1.36-5.59,3.16-8.04c1.8-2.45,4.26-4.42,7.39-5.91c3.13-1.49,6.8-2.23,11.02-2.23c4.46,0,8.37,0.81,11.72,2.42
		c3.35,1.61,5.92,3.84,7.72,6.7c1.8,2.85,2.7,6.08,2.7,9.67v30.41h-14.14l-0.93-3.72h-0.46c-0.99,1.18-2.62,2.25-4.88,3.21
		C300.83,86.09,298.25,86.58,295.33,86.58z M299.52,74.49c1.67,0,3.12-0.31,4.32-0.93c1.21-0.62,2.11-1.49,2.7-2.6
		c0.59-1.12,0.88-2.45,0.88-4v-0.93h-7.44c-2.05,0-3.57,0.39-4.56,1.16c-0.99,0.78-1.49,1.81-1.49,3.12c0,1.24,0.46,2.25,1.4,3.02
		C296.26,74.1,297.66,74.49,299.52,74.49z"/>
	<path d="M333.37,85.65v-65.1h16v65.1H333.37z"/>
	<path d="M386.19,85.65v-65.1h16V41.1h0.47c0.87-1.18,2.37-2.25,4.51-3.21c2.14-0.96,4.54-1.44,7.21-1.44
		c3.66,0,6.88,0.81,9.67,2.42c2.79,1.61,4.98,3.89,6.56,6.84c1.58,2.95,2.37,6.43,2.37,10.46v29.48h-16V59.61
		c0-1.49-0.31-2.82-0.93-4c-0.62-1.18-1.47-2.11-2.56-2.79c-1.08-0.68-2.4-1.02-3.95-1.02c-1.49,0-2.78,0.33-3.86,0.98
		c-1.09,0.65-1.94,1.58-2.56,2.79c-0.62,1.21-0.93,2.56-0.93,4.05v26.04H386.19z"/>
	<path d="M457.71,86.58c-3.53,0-6.64-0.65-9.3-1.95c-2.67-1.3-4.7-3.07-6.09-5.3c-1.4-2.23-2.09-4.71-2.09-7.44
		c0-3.1,0.73-5.84,2.19-8.23c1.46-2.39,3.66-4.23,6.6-5.53c2.94-1.3,6.53-1.95,10.74-1.95h10.04v-0.93c0-1.8-0.57-3.27-1.72-4.42
		c-1.15-1.15-2.59-1.72-4.32-1.72c-1.12,0-2.09,0.17-2.93,0.51c-0.84,0.34-1.5,0.76-2,1.26c-0.5,0.5-0.9,1.09-1.21,1.77h-15.44
		c0.31-2.91,1.36-5.59,3.16-8.04c1.8-2.45,4.26-4.42,7.39-5.91c3.13-1.49,6.8-2.23,11.02-2.23c4.46,0,8.37,0.81,11.72,2.42
		c3.35,1.61,5.92,3.84,7.72,6.7c1.8,2.85,2.7,6.08,2.7,9.67v30.41h-14.14l-0.93-3.72h-0.46c-0.99,1.18-2.62,2.25-4.88,3.21
		C463.21,86.09,460.62,86.58,457.71,86.58z M461.89,74.49c1.67,0,3.12-0.31,4.32-0.93c1.21-0.62,2.11-1.49,2.7-2.6
		c0.59-1.12,0.88-2.45,0.88-4v-0.93h-7.44c-2.05,0-3.57,0.39-4.56,1.16c-0.99,0.78-1.49,1.81-1.49,3.12c0,1.24,0.46,2.25,1.4,3.02
		C458.64,74.1,460.03,74.49,461.89,74.49z"/>
	<path d="M518.62,86.58c-4.84,0-9.18-1.1-13.02-3.3c-3.84-2.2-6.88-5.21-9.11-9.02c-2.23-3.81-3.35-8.07-3.35-12.79
		c0-4.71,1.12-8.97,3.35-12.79c2.23-3.81,5.27-6.8,9.11-8.97c3.84-2.17,8.18-3.25,13.02-3.25c4.65,0,8.73,0.95,12.23,2.84
		c3.5,1.89,6.28,4.37,8.32,7.44s3.35,6.4,3.91,10h-16.28c-0.5-1.61-1.4-2.94-2.7-4c-1.3-1.05-3.13-1.58-5.49-1.58
		c-1.67,0-3.24,0.43-4.7,1.3c-1.46,0.87-2.62,2.08-3.49,3.63c-0.87,1.55-1.3,3.35-1.3,5.39c0,2.11,0.43,3.94,1.3,5.49
		c0.87,1.55,2.03,2.74,3.49,3.58c1.46,0.84,3.02,1.26,4.7,1.26c2.29,0,4.11-0.53,5.44-1.58c1.33-1.05,2.25-2.42,2.74-4.09h16.28
		c-0.56,3.66-1.86,7.04-3.91,10.14c-2.05,3.1-4.82,5.6-8.32,7.49C527.35,85.63,523.27,86.58,518.62,86.58z"/>
	<path d="M551.17,85.65v-65.1h16v38.04l14.51-21.2h17.86L582.79,61l17.67,24.65h-17.86l-15.44-22.13v22.13H551.17z"/>
	<path d="M603.16,27.61V14.59h16.37v13.02H603.16z M603.34,85.65V37.38h16v48.27H603.34z"/>
	<path d="M629.2,85.65V37.38h14.14l0.93,3.72h0.46c0.99-1.18,2.6-2.25,4.84-3.21c2.23-0.96,4.84-1.44,7.81-1.44
		c3.66,0,6.88,0.81,9.67,2.42c2.79,1.61,4.98,3.89,6.56,6.84c1.58,2.95,2.37,6.43,2.37,10.46v29.48h-16V59.61
		c0-1.49-0.31-2.82-0.93-4c-0.62-1.18-1.47-2.11-2.56-2.79c-1.09-0.68-2.4-1.02-3.95-1.02c-1.49,0-2.78,0.33-3.86,0.98
		c-1.08,0.65-1.94,1.58-2.56,2.79c-0.62,1.21-0.93,2.56-0.93,4.05v26.04H629.2z"/>
	<path d="M707.97,105.18c-5.27,0-9.67-0.93-13.21-2.79c-3.53-1.86-6.17-4.2-7.91-7.02c-1.74-2.82-2.67-5.72-2.79-8.7h16.09
		c0.19,0.74,0.57,1.49,1.16,2.23c0.59,0.74,1.42,1.36,2.51,1.86c1.08,0.5,2.46,0.74,4.14,0.74c2.6,0,4.63-0.7,6.09-2.09
		c1.46-1.4,2.19-3.36,2.19-5.91v-5.11h-0.46c-0.93,0.93-2.4,1.8-4.42,2.6c-2.02,0.81-4.26,1.21-6.74,1.21
		c-4.03,0-7.67-0.96-10.93-2.88c-3.26-1.92-5.81-4.63-7.67-8.14c-1.86-3.5-2.79-7.45-2.79-11.86c0-4.46,0.93-8.43,2.79-11.9
		c1.86-3.47,4.42-6.17,7.67-8.09c3.25-1.92,6.9-2.88,10.93-2.88c2.73,0,5.13,0.45,7.21,1.35c2.08,0.9,3.73,2.06,4.98,3.49h0.46
		l0.93-3.91h14.04V83.6c0,4.34-0.93,8.14-2.79,11.39c-1.86,3.25-4.62,5.77-8.28,7.53C717.52,104.29,713.11,105.18,707.97,105.18z
		 M707.78,68.16c1.55,0,2.98-0.36,4.28-1.07c1.3-0.71,2.33-1.75,3.07-3.12c0.74-1.36,1.12-2.91,1.12-4.65
		c0-1.74-0.37-3.29-1.12-4.65c-0.74-1.36-1.77-2.4-3.07-3.12c-1.3-0.71-2.73-1.07-4.28-1.07c-1.49,0-2.9,0.36-4.23,1.07
		c-1.33,0.71-2.39,1.75-3.16,3.12c-0.78,1.36-1.16,2.92-1.16,4.65c0,1.74,0.39,3.29,1.16,4.65c0.77,1.36,1.83,2.4,3.16,3.12
		C704.88,67.81,706.29,68.16,707.78,68.16z"/>
</g>
<g>
</g>
<g>
</g>
<g>
</g>
<g>
</g>
<g>
</g>
<g>
</g>
</svg>
